<mxfile host="app.diagrams.net" modified="2024-05-11T07:30:54.893Z" agent="Mozilla/5.0 (Windows NT 10.0; Win64; x64) AppleWebKit/537.36 (KHTML, like Gecko) Chrome/124.0.0.0 Safari/537.36" etag="tNkaiptLwRSzJmuLsOqU" version="24.3.0" type="github">
  <diagram name="Page-1" id="c4acf3e9-155e-7222-9cf6-157b1a14988f">
    <mxGraphModel dx="2082" dy="1189" grid="1" gridSize="10" guides="1" tooltips="1" connect="1" arrows="1" fold="1" page="1" pageScale="1" pageWidth="850" pageHeight="1100" background="none" math="0" shadow="0">
      <root>
        <mxCell id="0" />
        <mxCell id="1" parent="0" />
        <mxCell id="17acba5748e5396b-1" value="&lt;span style=&quot;font-family: SFMono-Regular, Menlo, Monaco, Consolas, &amp;quot;Liberation Mono&amp;quot;, &amp;quot;Courier New&amp;quot;, monospace; font-size: 13.125px; text-align: left;&quot;&gt;ReferenceManagementServiceAPI&lt;/span&gt;" style="shape=umlFrame;whiteSpace=wrap;html=1;rounded=0;shadow=0;comic=0;labelBackgroundColor=none;strokeWidth=1;fontFamily=Verdana;fontSize=10;align=center;labelBorderColor=default;textShadow=1;" parent="1" vertex="1">
          <mxGeometry x="15" y="20" width="820" height="780" as="geometry" />
        </mxCell>
        <mxCell id="5d2195bd80daf111-38" style="edgeStyle=orthogonalEdgeStyle;rounded=0;html=1;dashed=1;labelBackgroundColor=none;startFill=0;endArrow=open;endFill=0;endSize=10;fontFamily=Verdana;fontSize=10;exitX=0.477;exitY=0.98;exitDx=0;exitDy=0;exitPerimeter=0;fontColor=default;labelBorderColor=default;textShadow=1;" parent="1" target="17acba5748e5396b-2" edge="1">
          <mxGeometry relative="1" as="geometry">
            <Array as="points">
              <mxPoint x="611" y="580" />
              <mxPoint x="425" y="580" />
            </Array>
            <mxPoint x="611.0300000000002" y="520" as="sourcePoint" />
            <mxPoint x="425" y="722" as="targetPoint" />
          </mxGeometry>
        </mxCell>
        <mxCell id="5d2195bd80daf111-40" style="edgeStyle=orthogonalEdgeStyle;rounded=0;html=1;dashed=1;labelBackgroundColor=none;startFill=0;endArrow=open;endFill=0;endSize=10;fontFamily=Verdana;fontSize=10;fontColor=default;labelBorderColor=default;textShadow=1;" parent="1" source="5d2195bd80daf111-20" target="5d2195bd80daf111-1" edge="1">
          <mxGeometry relative="1" as="geometry">
            <Array as="points" />
          </mxGeometry>
        </mxCell>
        <mxCell id="17acba5748e5396b-2" value="&lt;span style=&quot;font-family: SFMono-Regular, Menlo, Monaco, Consolas, &amp;quot;Liberation Mono&amp;quot;, &amp;quot;Courier New&amp;quot;, monospace; font-size: 13.125px; text-align: left; text-wrap: wrap;&quot;&gt;PaperItemKey&lt;/span&gt;" style="swimlane;html=1;fontStyle=0;childLayout=stackLayout;horizontal=1;startSize=26;fillColor=none;horizontalStack=0;resizeParent=1;resizeLast=0;collapsible=1;marginBottom=0;swimlaneFillColor=#ffffff;rounded=0;shadow=0;comic=0;labelBackgroundColor=none;strokeWidth=1;fontFamily=Verdana;fontSize=10;align=center;labelBorderColor=default;textShadow=1;" parent="1" vertex="1">
          <mxGeometry x="410" y="610" width="160" height="71.5" as="geometry" />
        </mxCell>
        <mxCell id="17acba5748e5396b-3" value="+&amp;nbsp;&lt;span style=&quot;font-family: SFMono-Regular, Menlo, Monaco, Consolas, &amp;quot;Liberation Mono&amp;quot;, &amp;quot;Courier New&amp;quot;, monospace; font-size: 13.125px;&quot;&gt;doi&lt;/span&gt;: string" style="text;html=1;strokeColor=none;fillColor=none;align=left;verticalAlign=top;spacingLeft=4;spacingRight=4;whiteSpace=wrap;overflow=hidden;rotatable=0;points=[[0,0.5],[1,0.5]];portConstraint=eastwest;labelBackgroundColor=none;labelBorderColor=default;textShadow=1;" parent="17acba5748e5396b-2" vertex="1">
          <mxGeometry y="26" width="160" height="26" as="geometry" />
        </mxCell>
        <mxCell id="5d2195bd80daf111-1" value="&lt;span style=&quot;font-family: SFMono-Regular, Menlo, Monaco, Consolas, &amp;quot;Liberation Mono&amp;quot;, &amp;quot;Courier New&amp;quot;, monospace; font-size: 13.125px; text-align: left; text-wrap: wrap;&quot;&gt;createPaperItemParameter&lt;/span&gt;" style="swimlane;html=1;fontStyle=0;childLayout=stackLayout;horizontal=1;startSize=26;fillColor=none;horizontalStack=0;resizeParent=1;resizeLast=0;collapsible=1;marginBottom=0;swimlaneFillColor=#ffffff;rounded=0;shadow=0;comic=0;labelBackgroundColor=none;strokeWidth=1;fontFamily=Verdana;fontSize=10;align=center;labelBorderColor=default;textShadow=1;" parent="1" vertex="1">
          <mxGeometry x="60" y="260" width="200" height="110" as="geometry" />
        </mxCell>
        <mxCell id="5d2195bd80daf111-2" value="+ who: string&lt;div&gt;&lt;br&gt;&lt;/div&gt;" style="text;html=1;strokeColor=none;fillColor=none;align=left;verticalAlign=top;spacingLeft=4;spacingRight=4;whiteSpace=wrap;overflow=hidden;rotatable=0;points=[[0,0.5],[1,0.5]];portConstraint=eastwest;labelBackgroundColor=none;labelBorderColor=default;textShadow=1;" parent="5d2195bd80daf111-1" vertex="1">
          <mxGeometry y="26" width="200" height="26" as="geometry" />
        </mxCell>
        <mxCell id="5d2195bd80daf111-3" value="+ what: string" style="text;html=1;strokeColor=none;fillColor=none;align=left;verticalAlign=top;spacingLeft=4;spacingRight=4;whiteSpace=wrap;overflow=hidden;rotatable=0;points=[[0,0.5],[1,0.5]];portConstraint=eastwest;labelBackgroundColor=none;labelBorderColor=default;textShadow=1;" parent="5d2195bd80daf111-1" vertex="1">
          <mxGeometry y="52" width="200" height="26" as="geometry" />
        </mxCell>
        <mxCell id="5d2195bd80daf111-4" value="+ where: string" style="text;html=1;strokeColor=none;fillColor=none;align=left;verticalAlign=top;spacingLeft=4;spacingRight=4;whiteSpace=wrap;overflow=hidden;rotatable=0;points=[[0,0.5],[1,0.5]];portConstraint=eastwest;labelBackgroundColor=none;labelBorderColor=default;textShadow=1;" parent="5d2195bd80daf111-1" vertex="1">
          <mxGeometry y="78" width="200" height="26" as="geometry" />
        </mxCell>
        <mxCell id="5d2195bd80daf111-41" style="edgeStyle=orthogonalEdgeStyle;rounded=0;html=1;dashed=1;labelBackgroundColor=none;startFill=0;endArrow=open;endFill=0;endSize=10;fontFamily=Verdana;fontSize=10;fontColor=default;labelBorderColor=default;textShadow=1;" parent="1" source="5d2195bd80daf111-5" target="17acba5748e5396b-2" edge="1">
          <mxGeometry relative="1" as="geometry">
            <Array as="points" />
          </mxGeometry>
        </mxCell>
        <mxCell id="5d2195bd80daf111-5" value="&lt;span style=&quot;font-family: SFMono-Regular, Menlo, Monaco, Consolas, &amp;quot;Liberation Mono&amp;quot;, &amp;quot;Courier New&amp;quot;, monospace; font-size: 13.125px; text-align: left; text-wrap: wrap;&quot;&gt;PaperItemDTO&lt;/span&gt;" style="swimlane;html=1;fontStyle=0;childLayout=stackLayout;horizontal=1;startSize=26;fillColor=none;horizontalStack=0;resizeParent=1;resizeLast=0;collapsible=1;marginBottom=0;swimlaneFillColor=#ffffff;rounded=0;shadow=0;comic=0;labelBackgroundColor=none;strokeWidth=1;fontFamily=Verdana;fontSize=10;align=center;labelBorderColor=default;textShadow=1;" parent="1" vertex="1">
          <mxGeometry x="90" y="620" width="200" height="130" as="geometry" />
        </mxCell>
        <mxCell id="5d2195bd80daf111-6" value="+&amp;nbsp;&lt;span style=&quot;font-family: SFMono-Regular, Menlo, Monaco, Consolas, &amp;quot;Liberation Mono&amp;quot;, &amp;quot;Courier New&amp;quot;, monospace; font-size: 13.125px;&quot;&gt;title:string&lt;/span&gt;" style="text;html=1;strokeColor=none;fillColor=none;align=left;verticalAlign=top;spacingLeft=4;spacingRight=4;whiteSpace=wrap;overflow=hidden;rotatable=0;points=[[0,0.5],[1,0.5]];portConstraint=eastwest;labelBackgroundColor=none;labelBorderColor=default;textShadow=1;" parent="5d2195bd80daf111-5" vertex="1">
          <mxGeometry y="26" width="200" height="26" as="geometry" />
        </mxCell>
        <mxCell id="5d2195bd80daf111-7" value="+ authors:string&lt;div&gt;&lt;br&gt;&lt;/div&gt;" style="text;html=1;strokeColor=none;fillColor=none;align=left;verticalAlign=top;spacingLeft=4;spacingRight=4;whiteSpace=wrap;overflow=hidden;rotatable=0;points=[[0,0.5],[1,0.5]];portConstraint=eastwest;labelBackgroundColor=none;labelBorderColor=default;textShadow=1;" parent="5d2195bd80daf111-5" vertex="1">
          <mxGeometry y="52" width="200" height="26" as="geometry" />
        </mxCell>
        <mxCell id="foXlttB-YN2XLz3a-5Cb-3" value="+ venue:string&lt;div&gt;&lt;br&gt;&lt;/div&gt;" style="text;html=1;strokeColor=none;fillColor=none;align=left;verticalAlign=top;spacingLeft=4;spacingRight=4;whiteSpace=wrap;overflow=hidden;rotatable=0;points=[[0,0.5],[1,0.5]];portConstraint=eastwest;labelBackgroundColor=none;labelBorderColor=default;textShadow=1;" vertex="1" parent="5d2195bd80daf111-5">
          <mxGeometry y="78" width="200" height="26" as="geometry" />
        </mxCell>
        <mxCell id="foXlttB-YN2XLz3a-5Cb-4" value="+ paperItemId:PaperItemKey" style="text;html=1;strokeColor=none;fillColor=none;align=left;verticalAlign=top;spacingLeft=4;spacingRight=4;whiteSpace=wrap;overflow=hidden;rotatable=0;points=[[0,0.5],[1,0.5]];portConstraint=eastwest;labelBackgroundColor=none;labelBorderColor=default;textShadow=1;" vertex="1" parent="5d2195bd80daf111-5">
          <mxGeometry y="104" width="200" height="26" as="geometry" />
        </mxCell>
        <mxCell id="5d2195bd80daf111-12" value="&lt;p style=&quot;margin:0px;margin-top:4px;text-align:center;&quot;&gt;&lt;i&gt;&amp;lt;&amp;lt;Repository&amp;gt;&amp;gt;&lt;/i&gt;&lt;br&gt;&lt;b&gt;ArchiveRepository&lt;/b&gt;&lt;/p&gt;&lt;p style=&quot;margin:0px;margin-left:4px;&quot;&gt;&lt;br&gt;&lt;/p&gt;&lt;hr size=&quot;1&quot;&gt;&lt;p style=&quot;margin:0px;margin-left:4px;&quot;&gt;+&amp;nbsp;&lt;span style=&quot;text-wrap: wrap; font-family: SFMono-Regular, Menlo, Monaco, Consolas, &amp;quot;Liberation Mono&amp;quot;, &amp;quot;Courier New&amp;quot;, monospace; font-size: 13.125px;&quot;&gt;lookupPapersFromAuthor&lt;/span&gt;&lt;span style=&quot;&quot;&gt;(Query):&amp;nbsp;&lt;/span&gt;&lt;span style=&quot;text-wrap: wrap; font-family: SFMono-Regular, Menlo, Monaco, Consolas, &amp;quot;Liberation Mono&amp;quot;, &amp;quot;Courier New&amp;quot;, monospace; font-size: 13.125px;&quot;&gt;PaperItemDTO&lt;/span&gt;&lt;br&gt;+&amp;nbsp;&lt;span style=&quot;text-wrap: wrap; font-family: SFMono-Regular, Menlo, Monaco, Consolas, &amp;quot;Liberation Mono&amp;quot;, &amp;quot;Courier New&amp;quot;, monospace; font-size: 13.125px;&quot;&gt;createPaperItem&lt;/span&gt;&lt;span style=&quot;&quot;&gt;(&lt;/span&gt;&lt;span style=&quot;font-family: SFMono-Regular, Menlo, Monaco, Consolas, &amp;quot;Liberation Mono&amp;quot;, &amp;quot;Courier New&amp;quot;, monospace; font-size: 13.125px; text-wrap: wrap;&quot;&gt;PaperItemDTO&lt;/span&gt;&lt;span style=&quot;&quot;&gt;):&amp;nbsp;&lt;/span&gt;&lt;span style=&quot;text-wrap: wrap; font-family: SFMono-Regular, Menlo, Monaco, Consolas, &amp;quot;Liberation Mono&amp;quot;, &amp;quot;Courier New&amp;quot;, monospace; font-size: 13.125px;&quot;&gt;PaperItemDTO&lt;/span&gt;&lt;/p&gt;" style="verticalAlign=top;align=left;overflow=fill;fontSize=12;fontFamily=Helvetica;html=1;rounded=0;shadow=0;comic=0;labelBackgroundColor=none;strokeWidth=1;labelBorderColor=default;textShadow=1;" parent="1" vertex="1">
          <mxGeometry x="50" y="444.5" width="350" height="111" as="geometry" />
        </mxCell>
        <mxCell id="5d2195bd80daf111-21" style="edgeStyle=orthogonalEdgeStyle;rounded=0;html=1;labelBackgroundColor=none;startFill=0;endArrow=open;endFill=0;endSize=10;fontFamily=Verdana;fontSize=10;dashed=1;fontColor=default;labelBorderColor=default;textShadow=1;" parent="1" source="5d2195bd80daf111-18" target="5d2195bd80daf111-20" edge="1">
          <mxGeometry relative="1" as="geometry">
            <mxPoint x="680" y="270" as="targetPoint" />
            <Array as="points">
              <mxPoint x="588" y="90" />
            </Array>
          </mxGeometry>
        </mxCell>
        <mxCell id="5d2195bd80daf111-18" value="&lt;p style=&quot;margin:0px;margin-top:4px;text-align:center;&quot;&gt;&lt;i&gt;&amp;lt;&amp;lt;Api Gateway&amp;gt;&amp;gt;&lt;/i&gt;&lt;br&gt;&lt;span style=&quot;font-family: SFMono-Regular, Menlo, Monaco, Consolas, &amp;quot;Liberation Mono&amp;quot;, &amp;quot;Courier New&amp;quot;, monospace; font-size: 13.125px; text-align: left; text-wrap: wrap;&quot;&gt;PaperArchiveFacade&lt;/span&gt;&lt;br&gt;&lt;/p&gt;&lt;hr size=&quot;1&quot;&gt;&lt;p style=&quot;margin:0px;margin-left:4px;&quot;&gt;+PaperArchiveService&amp;nbsp;&lt;/p&gt;&lt;hr size=&quot;1&quot;&gt;&lt;p style=&quot;margin:0px;margin-left:4px;&quot;&gt;+&amp;nbsp;&lt;span style=&quot;font-family: SFMono-Regular, Menlo, Monaco, Consolas, &amp;quot;Liberation Mono&amp;quot;, &amp;quot;Courier New&amp;quot;, monospace; font-size: 13.125px; text-wrap: wrap;&quot;&gt;lookupPapersFromAuthor&lt;/span&gt;&lt;span style=&quot;&quot;&gt;(Query):&amp;nbsp;&lt;/span&gt;&lt;span style=&quot;font-family: SFMono-Regular, Menlo, Monaco, Consolas, &amp;quot;Liberation Mono&amp;quot;, &amp;quot;Courier New&amp;quot;, monospace; font-size: 13.125px; text-wrap: wrap;&quot;&gt;PaperItemDTO&lt;/span&gt;&lt;/p&gt;&lt;p style=&quot;margin:0px;margin-left:4px;&quot;&gt;+&amp;nbsp;&lt;span style=&quot;font-family: SFMono-Regular, Menlo, Monaco, Consolas, &amp;quot;Liberation Mono&amp;quot;, &amp;quot;Courier New&amp;quot;, monospace; font-size: 13.125px; text-wrap: wrap;&quot;&gt;createPaperItem&lt;/span&gt;&lt;span style=&quot;&quot;&gt;(Body:c&lt;/span&gt;&lt;span style=&quot;font-family: SFMono-Regular, Menlo, Monaco, Consolas, &amp;quot;Liberation Mono&amp;quot;, &amp;quot;Courier New&amp;quot;, monospace; font-size: 13.125px; text-wrap: wrap;&quot;&gt;reatePaperItemParameter&lt;/span&gt;&lt;span style=&quot;&quot;&gt;):&amp;nbsp;&lt;/span&gt;&lt;span style=&quot;font-family: SFMono-Regular, Menlo, Monaco, Consolas, &amp;quot;Liberation Mono&amp;quot;, &amp;quot;Courier New&amp;quot;, monospace; font-size: 13.125px; text-wrap: wrap;&quot;&gt;PaperItemDTO&lt;/span&gt;&lt;/p&gt;&lt;p style=&quot;margin:0px;margin-left:4px;&quot;&gt;&lt;span style=&quot;font-family: SFMono-Regular, Menlo, Monaco, Consolas, &amp;quot;Liberation Mono&amp;quot;, &amp;quot;Courier New&amp;quot;, monospace; font-size: 13.125px; text-wrap: wrap;&quot;&gt;+&amp;nbsp;&lt;/span&gt;&lt;span style=&quot;font-family: SFMono-Regular, Menlo, Monaco, Consolas, &amp;quot;Liberation Mono&amp;quot;, &amp;quot;Courier New&amp;quot;, monospace; font-size: 13.125px; text-wrap: wrap;&quot;&gt;convertToMarkdownForWebsite(&lt;/span&gt;&lt;span style=&quot;font-family: SFMono-Regular, Menlo, Monaco, Consolas, &amp;quot;Liberation Mono&amp;quot;, &amp;quot;Courier New&amp;quot;, monospace; font-size: 13.125px; text-wrap: wrap;&quot;&gt;PaperItemKey&lt;/span&gt;&lt;span style=&quot;font-family: SFMono-Regular, Menlo, Monaco, Consolas, &amp;quot;Liberation Mono&amp;quot;, &amp;quot;Courier New&amp;quot;, monospace; font-size: 13.125px; text-wrap: wrap;&quot;&gt;):String&lt;/span&gt;&lt;/p&gt;" style="verticalAlign=top;align=left;overflow=fill;fontSize=12;fontFamily=Helvetica;html=1;rounded=0;shadow=0;comic=0;labelBackgroundColor=none;strokeWidth=1;labelBorderColor=default;textShadow=1;" parent="1" vertex="1">
          <mxGeometry x="50" y="60" width="400" height="140" as="geometry" />
        </mxCell>
        <mxCell id="5d2195bd80daf111-30" style="edgeStyle=orthogonalEdgeStyle;rounded=0;html=1;dashed=1;labelBackgroundColor=none;startFill=0;endArrow=open;endFill=0;endSize=10;fontFamily=Verdana;fontSize=10;fontColor=default;labelBorderColor=default;textShadow=1;" parent="1" source="5d2195bd80daf111-20" target="5d2195bd80daf111-12" edge="1">
          <mxGeometry relative="1" as="geometry">
            <Array as="points">
              <mxPoint x="588" y="410" />
            </Array>
            <mxPoint x="350" y="642" as="targetPoint" />
          </mxGeometry>
        </mxCell>
        <mxCell id="5d2195bd80daf111-20" value="&lt;p style=&quot;margin:0px;margin-top:4px;text-align:center;&quot;&gt;&lt;i&gt;&amp;lt;&amp;lt;Service&amp;gt;&amp;gt;&lt;/i&gt;&lt;br&gt;&lt;b&gt;PaperArchiveService&lt;/b&gt;&lt;/p&gt;&lt;hr size=&quot;1&quot;&gt;&lt;p style=&quot;margin:0px;margin-left:4px;&quot;&gt;+ ArchiveRepository&lt;br&gt;&lt;/p&gt;&lt;p style=&quot;margin:0px;margin-left:4px;&quot;&gt;+ArchiveConverter&lt;/p&gt;&lt;hr size=&quot;1&quot;&gt;&lt;p style=&quot;margin: 0px 0px 0px 4px;&quot;&gt;+&amp;nbsp;&lt;span style=&quot;font-family: SFMono-Regular, Menlo, Monaco, Consolas, &amp;quot;Liberation Mono&amp;quot;, &amp;quot;Courier New&amp;quot;, monospace; font-size: 13.125px; text-wrap: wrap;&quot;&gt;lookupPapersFromAuthor&lt;/span&gt;&lt;span style=&quot;&quot;&gt;(Query):&amp;nbsp;&lt;/span&gt;&lt;span style=&quot;font-family: SFMono-Regular, Menlo, Monaco, Consolas, &amp;quot;Liberation Mono&amp;quot;, &amp;quot;Courier New&amp;quot;, monospace; font-size: 13.125px; text-wrap: wrap;&quot;&gt;PaperItemDTO&lt;/span&gt;&lt;/p&gt;&lt;p style=&quot;margin: 0px 0px 0px 4px;&quot;&gt;+&amp;nbsp;&lt;span style=&quot;font-family: SFMono-Regular, Menlo, Monaco, Consolas, &amp;quot;Liberation Mono&amp;quot;, &amp;quot;Courier New&amp;quot;, monospace; font-size: 13.125px; text-wrap: wrap;&quot;&gt;createPaperItem&lt;/span&gt;&lt;span style=&quot;&quot;&gt;(Body:c&lt;/span&gt;&lt;span style=&quot;font-family: SFMono-Regular, Menlo, Monaco, Consolas, &amp;quot;Liberation Mono&amp;quot;, &amp;quot;Courier New&amp;quot;, monospace; font-size: 13.125px; text-wrap: wrap;&quot;&gt;reatePaperItemParameter&lt;/span&gt;&lt;span style=&quot;&quot;&gt;):&amp;nbsp;&lt;/span&gt;&lt;span style=&quot;font-family: SFMono-Regular, Menlo, Monaco, Consolas, &amp;quot;Liberation Mono&amp;quot;, &amp;quot;Courier New&amp;quot;, monospace; font-size: 13.125px; text-wrap: wrap;&quot;&gt;PaperItemDTO&lt;/span&gt;&lt;/p&gt;&lt;p style=&quot;margin: 0px 0px 0px 4px;&quot;&gt;&lt;span style=&quot;font-family: SFMono-Regular, Menlo, Monaco, Consolas, &amp;quot;Liberation Mono&amp;quot;, &amp;quot;Courier New&amp;quot;, monospace; font-size: 13.125px; text-wrap: wrap;&quot;&gt;+&amp;nbsp;&lt;/span&gt;&lt;span style=&quot;font-family: SFMono-Regular, Menlo, Monaco, Consolas, &amp;quot;Liberation Mono&amp;quot;, &amp;quot;Courier New&amp;quot;, monospace; font-size: 13.125px; text-wrap: wrap;&quot;&gt;convertToMarkdownForWebsite(&lt;/span&gt;&lt;span style=&quot;font-family: SFMono-Regular, Menlo, Monaco, Consolas, &amp;quot;Liberation Mono&amp;quot;, &amp;quot;Courier New&amp;quot;, monospace; font-size: 13.125px; text-wrap: wrap;&quot;&gt;PaperItemKey&lt;/span&gt;&lt;span style=&quot;font-family: SFMono-Regular, Menlo, Monaco, Consolas, &amp;quot;Liberation Mono&amp;quot;, &amp;quot;Courier New&amp;quot;, monospace; font-size: 13.125px; text-wrap: wrap;&quot;&gt;):String&lt;/span&gt;&lt;/p&gt;" style="verticalAlign=top;align=left;overflow=fill;fontSize=12;fontFamily=Helvetica;html=1;rounded=0;shadow=0;comic=0;labelBackgroundColor=none;strokeWidth=1;labelBorderColor=default;textShadow=1;" parent="1" vertex="1">
          <mxGeometry x="360" y="220" width="455" height="160" as="geometry" />
        </mxCell>
        <mxCell id="5d2195bd80daf111-37" style="edgeStyle=orthogonalEdgeStyle;rounded=0;html=1;dashed=1;labelBackgroundColor=none;startFill=0;endArrow=open;endFill=0;endSize=10;fontFamily=Verdana;fontSize=10;exitX=0.523;exitY=0.986;exitDx=0;exitDy=0;exitPerimeter=0;fontColor=default;labelBorderColor=default;textShadow=1;" parent="1" source="5d2195bd80daf111-12" target="5d2195bd80daf111-5" edge="1">
          <mxGeometry relative="1" as="geometry">
            <Array as="points">
              <mxPoint x="233" y="590" />
              <mxPoint x="170" y="590" />
            </Array>
            <mxPoint x="570" y="823" as="targetPoint" />
          </mxGeometry>
        </mxCell>
        <mxCell id="foXlttB-YN2XLz3a-5Cb-1" value="&lt;p style=&quot;margin:0px;margin-top:4px;text-align:center;&quot;&gt;&lt;i&gt;&amp;lt;&amp;lt;Service&amp;gt;&amp;gt;&lt;/i&gt;&lt;br&gt;&lt;b&gt;ArchiveConverter&lt;/b&gt;&lt;/p&gt;&lt;p style=&quot;margin:0px;margin-left:4px;&quot;&gt;&lt;br&gt;&lt;/p&gt;&lt;hr size=&quot;1&quot;&gt;&lt;p style=&quot;margin:0px;margin-left:4px;&quot;&gt;&lt;span style=&quot;text-wrap: wrap; font-family: SFMono-Regular, Menlo, Monaco, Consolas, &amp;quot;Liberation Mono&amp;quot;, &amp;quot;Courier New&amp;quot;, monospace; font-size: 13.125px;&quot;&gt;+&amp;nbsp;&lt;/span&gt;&lt;span style=&quot;text-wrap: wrap; font-family: SFMono-Regular, Menlo, Monaco, Consolas, &amp;quot;Liberation Mono&amp;quot;, &amp;quot;Courier New&amp;quot;, monospace; font-size: 13.125px;&quot;&gt;convertToMarkdownForWebsite(&lt;/span&gt;&lt;span style=&quot;text-wrap: wrap; font-family: SFMono-Regular, Menlo, Monaco, Consolas, &amp;quot;Liberation Mono&amp;quot;, &amp;quot;Courier New&amp;quot;, monospace; font-size: 13.125px;&quot;&gt;PaperItemKey&lt;/span&gt;&lt;span style=&quot;text-wrap: wrap; font-family: SFMono-Regular, Menlo, Monaco, Consolas, &amp;quot;Liberation Mono&amp;quot;, &amp;quot;Courier New&amp;quot;, monospace; font-size: 13.125px;&quot;&gt;):String&lt;/span&gt;&lt;br&gt;&lt;/p&gt;" style="verticalAlign=top;align=left;overflow=fill;fontSize=12;fontFamily=Helvetica;html=1;rounded=0;shadow=0;comic=0;labelBackgroundColor=none;strokeWidth=1;labelBorderColor=default;textShadow=1;" vertex="1" parent="1">
          <mxGeometry x="425" y="450" width="390" height="100" as="geometry" />
        </mxCell>
        <mxCell id="foXlttB-YN2XLz3a-5Cb-2" style="edgeStyle=orthogonalEdgeStyle;rounded=0;html=1;dashed=1;labelBackgroundColor=none;startFill=0;endArrow=open;endFill=0;endSize=10;fontFamily=Verdana;fontSize=10;exitX=0.5;exitY=1;exitDx=0;exitDy=0;fontColor=default;labelBorderColor=default;textShadow=1;" edge="1" parent="1" source="5d2195bd80daf111-20" target="foXlttB-YN2XLz3a-5Cb-1">
          <mxGeometry relative="1" as="geometry">
            <Array as="points">
              <mxPoint x="598" y="380" />
            </Array>
            <mxPoint x="598" y="390" as="sourcePoint" />
            <mxPoint x="410" y="420" as="targetPoint" />
          </mxGeometry>
        </mxCell>
      </root>
    </mxGraphModel>
  </diagram>
</mxfile>
